# xmcd
#
# Track frame offsets: 
#        150
#        12045
#        23591
#        34934
#        46793
#        61098
#        72816
#        86658
#        98948
#        117399
#        128773
#        142234
#        152820
#        162476
#        178104
#        190251
#        202772
#        218576
#        232613
#        245856
#        259042
#        277687
#        289551
#        308216
#        325601
#
# Disc length: 4524 seconds
#
# Revision: 1
# Processed by: cddbd v1.5.2PL0 Copyright (c) Steve Scherf et al.
# Submitted via: ExactAudioCopyFreeDBPlugin 1.0
#
DISCID=5111aa19
DTITLE=Various Artist - The Complete Stax-Volt Singles, 1959-1975
DYEAR=2018
DGENRE=Soul
TTITLE0=Shirley Walton - I’m So Glad You’re Back
TTITLE1=Delaney and Bonnie - We’ve Just Been Feeling Bad
TTITLE2=Linda Lyndell - I Don’t Know
TTITLE3=Judy Clay and William Bell - Love-Eye-Tis
TTITLE4=Judy Clay - Remove These Clouds
TTITLE5=The Staple Singers - Stay with Us
TTITLE6=Rufus Thomas - So Hard to Get Along With
TTITLE7=Jeanne and The Darlings - I Like What You’re Doing to Me
TTITLE8=Booker T. and The M.G.'s  - Over Easy
TTITLE9=Mable John - Shouldn’t I Love Him
TTITLE10=William Bell and Judy Clay - Left Over Love
TTITLE11=Jimmy Hughes - Sweet Things You Do
TTITLE12=Art Jerry Miller - Grab a Handful
TTITLE13=Eddie Floyd - Consider Me
TTITLE14=Booker T. and The M.G.'s - Soul Clap ’69
TTITLE15=Jeanne and The Darlings - Standing in the Need of Your Love
TTITLE16=The Bar-Kays - I Thank You
TTITLE17=The Soul Children - Make it Good
TTITLE18=Ollie and The Nightingales - I’ll Be Your Everything
TTITLE19=William Bell - Let Me Ride
TTITLE20=Booker T. and The M.G.'s - Sunday Sermon
TTITLE21=Carla Thomas - Hi De Ho (That Old Sweet Roll)
TTITLE22=Shack - A Love Affair That Bears No Pain
TTITLE23=The Nightingales - Just a Little Overcome
TTITLE24=The Newcomers - Mannish Boy
EXTD=
EXTT0=
EXTT1=
EXTT2=
EXTT3=
EXTT4=
EXTT5=
EXTT6=
EXTT7=
EXTT8=
EXTT9=
EXTT10=
EXTT11=
EXTT12=
EXTT13=
EXTT14=
EXTT15=
EXTT16=
EXTT17=
EXTT18=
EXTT19=
EXTT20=
EXTT21=
EXTT22=
EXTT23=
EXTT24=
PLAYORDER=
